<svg xmlns="http://www.w3.org/2000/svg" viewBox="0 0 232.78 174.87">
  <rect width="232.78" height="174.87" fill="#0B0B14"/>
  <polygon fill="#C9A84C" points="56.78 33.58 56.78 174.87 0 174.87 0 150.82 32.73 150.82 32.73 74.55 15.7 84.33 15.7 57.23 32.73 47.43 39.75 43.38 56.78 33.58"/>
  <polygon fill="#C9A84C" points="232.78 150.82 232.78 174.87 174.54 174.87 174.54 35.41 198.59 49.74 198.59 150.82 232.78 150.82"/>
  <polygon fill="#C9A84C" points="160.94 27.31 160.94 174.87 136.89 174.87 136.89 37.47 127.72 32.01 127.72 174.87 103.67 174.87 103.67 33.84 93.02 39.95 93.02 174.87 68.97 174.87 68.97 26.56 93.02 12.71 94.19 12.03 94.2 12.03 103.67 6.58 115.1 0 127.72 7.52 136.89 12.98 160.94 27.31"/>
</svg>